<?xml version="1.0" encoding="UTF-8"?>
<svg width="752pt" height="752pt" version="1.1" viewBox="0 0 752 752" xmlns="http://www.w3.org/2000/svg">
 <defs>
  <clipPath id="b">
   <path d="m156 139.21h456.79v193.79h-456.79z"/>
  </clipPath>
  <clipPath id="a">
   <path d="m139.21 419h458.79v193.79h-458.79z"/>
  </clipPath>
 </defs>
 <g>
  <g clip-path="url(#b)">
   <path d="m544.64 209.25 68.148-70.043v186.59h-189.01l69.902-68.621c-10.438-10.684-22.449-19.703-35.613-26.758-25.984-14.211-55.266-21.293-84.871-20.523-29.605 0.76953-58.48 9.3633-83.691 24.902-25.211 15.539-45.859 37.477-59.848 63.582-1.6406 3.0391-3.0352 6.207-4.168 9.4688-2.9922 9.1836-9.5703 16.766-18.242 21.02-8.6719 4.2578-18.695 4.8242-27.789 1.5703-9.0742-3.2305-16.434-10.031-20.367-18.82-3.9336-8.793-4.1055-18.812-0.46875-27.73 17.203-42.008 46.578-77.914 84.344-103.1 44.703-30.656 98.598-44.988 152.62-40.582 54.027 4.4102 104.89 27.285 144.03 64.781 1.1367 1.0898 2.4141 2.0352 5.0195 4.2617z"/>
  </g>
  <g clip-path="url(#a)">
   <path d="m139.21 611.89v-184.7h189.43l-70.281 69c8.0977 6.3945 15.438 12.93 23.68 18.422 31.512 20.836 69.109 30.484 106.76 27.391 37.652-3.0898 73.172-18.742 100.86-44.438 16.953-16.07 30.484-35.402 39.781-56.832 5.0742-11.613 15.965-19.637 28.559-21.051 12.598-1.4102 24.992 4.0039 32.512 14.207 7.5234 10.203 9.0273 23.645 3.9531 35.262-12.219 27.855-29.535 53.184-51.051 74.684-52.145 50.434-114.37 73.688-186.93 68.148-54.273-4.0938-105.39-27.105-144.44-65.023l-3.0312-2.793-68.48 68.621z"/>
  </g>
 </g>
</svg>
