<?xml version="1.0" encoding="UTF-8"?>
<svg width="752pt" height="752pt" version="1.1" viewBox="0 0 752 752" xmlns="http://www.w3.org/2000/svg">
 <path d="m540.32 310.95c-9.125-10.539-20.078-15.742-32.852-15.613h-1.0117c-1.8242-13.34-6.7578-25.605-14.801-36.812l-0.10547-0.10547c-12.648-17.105-27.895-25.488-45.727-25.141-4.2656 0.011718-8.4297 0.48437-12.477 1.4219-1.0117-1.5586-2.0938-3.2148-3.2344-4.9688-0.18359-0.20703-0.34766-0.41016-0.51172-0.60937-7.8984-11.293-20.539-16.938-37.93-16.934-9.6992-0.39844-19.57 3.0156-29.605 10.238-1.9883-3.4531-4.1836-6.7617-6.5898-9.9336-1.1562-1.6523-2.6484-3.543-4.4609-5.6836-0.67188-0.77734-1.4219-1.4883-2.2383-2.1328-0.19922-0.15234-0.4375-0.32031-0.71094-0.51172-15.348-16.773-30.605-24.996-45.723-24.637-15.656-0.87891-30.832 7.1992-45.539 24.23l-0.09375 0.10547c-24.965 27.879-29.898 63.266-14.801 106.17-1.0352 0.95312-2.082 1.9297-3.1484 2.9414h0.10547c-22.758 21.816-34.02 45.816-33.773 71.996-0.5 18.484 8.8242 39.512 27.988 63.07l0.10547 0.10547c10.781 13.961 27.473 25.652 50.09 35.082-3.0352 5.6875-4.4219 11.398-4.1562 17.137-0.82422 20.969 11.57 37.734 37.219 50.301l-0.10547-0.10547c17.602 8.8359 36.973 14.582 58.102 17.234h0.09375c21.484 2.5664 43.117 0.20703 64.895-7.0977l0.10547-0.10547c23.73-7.5977 36.871-25.891 39.445-54.855 5.8164-2.9609 11.902-6.8203 18.254-11.562l0.10547-0.10156c23.285-16.324 31.703-43.766 25.246-82.336 3.2148-2.8242 6.4609-6.0742 9.7383-9.7383h0.10547c14.438-16.098 21.434-32.824 20.988-50.195v-0.19922c-0.34766-17.781-4.6094-31.266-12.781-40.461-0.082032-0.042969-0.14453-0.10938-0.21094-0.19141zm-108.7 37.215c0.11719-0.19922 0.25391-0.39844 0.40625-0.60547 0.80469-1.3516 1.625-2.7031 2.4297-4.0586 6.082-10.102 10.375-20.75 12.875-31.941 1.8359-8.1523 2.7461-16.535 2.7344-25.148-0.003906-8.7578-1.1875-17.137-3.5469-25.148 8.6016 0.57813 16.074 5.1406 22.41 13.688l0.10547 0.10547c6.8359 9.5781 10.25 20.32 10.238 32.246-0.003907 14.145-3.7305 27.332-11.148 39.543l0.09375-0.10547c-7.7305 12.422-17.695 18.816-29.914 19.164-4.8984 0.003906-8.5469-1.5469-10.945-4.6641v-0.20703c-0.875-1.3633-1.5586-2.8828-2.0312-4.5625 2.168-2.5156 4.2656-5.2891 6.293-8.3047zm-59.824-38.934c0.16797-0.5625 0.30078-1.1016 0.40625-1.625 0.26953-1.4844 0.53516-2.9727 0.80469-4.4609l-0.19922 0.71094c2.6367-11.07 3.582-22.23 2.8359-33.461v-0.10156c-0.39062-6.7266-1.3633-13.449-2.9414-20.18 6.6133-6.1367 12.934-9.4453 18.961-9.9414 6.6094 0.011719 11.641 1.7305 15.113 5.1719l0.30469 0.30469c0.0625 0.10547 0.13281 0.19922 0.20703 0.30469 1.2109 1.8828 2.3984 3.6406 3.5508 5.2734v0.10156c1.3164 1.8516 2.5039 3.5781 3.5469 5.1719 0.085937 0.16797 0.18359 0.33594 0.30469 0.50391 0.30859 0.79297 0.71484 1.5664 1.2148 2.332 0.16797 0.54688 0.36328 1.0898 0.60547 1.6211 3.7305 7.8828 5.5938 16.363 5.5781 25.453-0.011719 6.5312-0.72266 12.883-2.1211 19.062-1.832 8.2734-4.9727 16.156-9.4336 23.625-0.80859 1.3477-1.625 2.6992-2.4375 4.0586-2.5195 3.5977-5.2266 6.6406-8.1094 9.125h0.10547c-6.0234 5.0625-12.883 7.5977-20.59 7.6055-5.2031 0-9.0547-1.7617-11.555-5.2734h-0.10547c-2.5156-4.5234-3.7617-10.414-3.7461-17.645 3.0391-5.0898 5.6055-11.004 7.6992-17.738zm-93.898-87.008 0.10547-0.10156c7.9883-9.2734 15.965-14.145 23.922-14.602 8.3398 0.75391 17.023 6.1289 26.062 16.121 0.44141 0.45703 0.92188 0.89453 1.4219 1.3164 0.4375 0.35938 0.84375 0.69922 1.2227 1.0117 0.74609 0.92578 1.3828 1.7695 1.9258 2.5352 0.14062 0.16797 0.27734 0.33594 0.40625 0.50391 4.0586 5.2773 7.3047 11.129 9.7383 17.543 0.61719 2.1211 1.2266 4.2852 1.8203 6.4922 1.7539 6.3203 2.793 12.641 3.1484 18.961v0.10156c0.60156 8.4766-0.078125 16.891-2.0312 25.254-0.070313 0.23828-0.13281 0.47266-0.19922 0.71094-0.22656 1.2227-0.45703 2.4375-0.71094 3.6523-0.39062 1.2148-0.78906 2.3984-1.2227 3.5469-2.5664-4.6641-6.1133-8.7188-10.645-12.164-0.10547-0.058593-0.20703-0.12109-0.30078-0.21094-5.9883-4.5-13.191-7.4023-21.594-8.7188 1.1562-2.7852 2.9141-6.8398 5.2656-12.172 1.582-3.5625 1.6836-7.1445 0.30859-10.746-1.4062-3.5781-3.8672-6.1445-7.4102-7.7031-3.5586-1.5898-7.1367-1.6875-10.75-0.30469-3.5742 1.4102-6.1406 3.8711-7.6992 7.4023-5.4883 12.359-8.3984 19.828-8.7227 22.406-0.050782 0.4375-0.085938 0.87891-0.10547 1.3164-0.046875 0.51953-0.078125 1.0312-0.10547 1.5195-0.24219 0.074219-0.48438 0.13672-0.70703 0.20703-0.15625 0.03125-0.32812 0.070313-0.50391 0.10547-4.832 1.4961-9.6992 3.625-14.605 6.3867-7.8047-28.016-3.8242-51.477 11.965-70.371zm202.59 249.45-0.10547 0.10547c-14.301 10.598-25.789 14.246-34.477 10.957-3.4219-1.8164-6.9727-2.1562-10.645-1.0156-3.6992 1.125-6.4688 3.3906-8.3086 6.793-1.8164 3.4102-2.1523 6.9609-1.0117 10.645 1.1328 3.6953 3.3984 6.4688 6.7891 8.3125 5.0625 3.1484 10.535 4.9727 16.43 5.4727-3.0977 10.434-9.375 17.531-18.863 21.297l0.10547-0.10156c-17.66 5.9375-35.199 7.8945-52.621 5.8828h-0.10547c-17.77-2.2266-34.062-7.0312-48.879-14.402l-0.09375-0.10156c-13.59-6.6523-20.797-15.027-21.602-25.148 0.33203-2.4727 1.4805-5.0039 3.4453-7.6055 7.1133 2.0508 14.613 3.9453 22.512 5.6758 3.7617 0.80859 7.2812 0.16797 10.547-1.9258 3.2852-2.0742 5.3398-4.9766 6.1875-8.7188 0.81641-3.7695 0.17188-7.2812-1.9258-10.547-2.0781-3.2734-4.9727-5.3359-8.7227-6.1836-40.953-8.9648-69.008-22.453-84.16-40.461l-0.10547-0.10547c-14.027-17.227-21.301-32.41-21.801-45.527 0.28516-18.707 8.668-35.945 25.152-51.715 2.875-2.7734 5.75-5.2773 8.6211-7.5039 0.09375-0.070313 0.19922-0.13281 0.30078-0.20703 0.39453-0.27734 0.76953-0.58594 1.1172-0.91406 7.0898-5.5586 14.023-9.4414 20.785-11.66l-0.50391 0.10547c2.3398-0.66406 4.6719-1.168 6.9922-1.5195 0.18359 0.011719 0.34766 0.011719 0.51172 0 1.2695-0.11719 2.582-0.1875 3.9531-0.20703 6.5039 0.003906 11.883 1.4258 16.117 4.2617l-0.19922-0.20703c3.2109 2.4414 4.7305 5.8867 4.5625 10.34 0.027344 2.0352-0.21484 4-0.71094 5.8828l-0.10547 0.30469v0.10547c-1.4219 4.1797-3.9922 8.0977-7.6992 11.762l-0.011718 0.11328c-8.918 9.0039-15.312 15.566-19.176 19.676-1.332 0.57422-2.5742 1.3828-3.7461 2.4297-2.6641 2.4062-4.1836 5.3711-4.5625 8.9258-0.39453 3.5664 0.44141 6.8086 2.5352 9.7344 2.1211 2.8984 4.9297 4.7266 8.4141 5.4766 5 1.4609 11.785 0.68359 20.387-2.332l0.20703-0.10547c4.0625-1.4883 7.0352-2.332 8.918-2.5352 8.7148 0.26953 17.738 3.8398 27.078 10.75l0.09375 0.10547c8.5469 6.5078 13.523 13.238 14.906 20.18 0.51172 3.8047 2.3047 6.8789 5.3711 9.2305 3.0742 2.375 6.5195 3.3242 10.344 2.8359 3.8047-0.51172 6.8789-2.3008 9.2305-5.3711 2.3672-3.0742 3.3203-6.5195 2.8359-10.352-1.1562-12.336-8.1523-23.988-20.984-34.98 1.832 0.20703 3.7188 0.30859 5.6719 0.30859 8.0391 0 15.574-1.4453 22.617-4.3633 0.56641 1 1.1836 1.9805 1.8242 2.9453 7.0781 11.625 18.527 17.434 34.371 17.438 1.5469 0.019531 3.0664-0.011719 4.5625-0.10547 1.2031 8.8984 5.7305 16.469 13.59 22.711l0.10156 0.10156c7.9727 6.625 18.039 9.9336 30.219 9.9414 3.043 0.046875 6.082-0.25781 9.125-0.91016 1.6367 20.742-3.5039 36.094-15.406 46.027zm44.828-119.45c-0.23047 10.684-4.8672 21.055-13.898 31.137h0.10547c-4.0625 4.4531-8.0547 8-11.961 10.645l-0.30859 0.19922c-0.25781 0.17188-0.49609 0.34375-0.71094 0.51172-3.9531 2.4453-7.8711 3.7305-11.762 3.8516-5.0664 0.003906-9.3047-1.2422-12.672-3.7578l-0.10547-0.10156c-2.1641-1.7031-3.3164-3.8047-3.4453-6.2891-0.011719-0.63281-0.011719-1.1406 0-1.5195 0.089844-0.22656 0.1875-0.46484 0.30078-0.71094 0.40625-0.79297 0.74219-1.6094 1.0156-2.4375 7.4766-5.3008 14.172-12.703 20.078-22.199l0.09375-0.10547c7.1094-11.707 11.738-24.078 13.898-37.113 0.48047-0.32031 0.94531-0.6875 1.4219-1.1172l0.10547 0.10156c4.4453 0.13281 8.293 2.0273 11.555 5.6836 3.9727 5.3672 6.0664 13.039 6.293 23.016v0.20703z"/>
</svg>
