<?xml version="1.0" encoding="UTF-8"?>
<svg width="752pt" height="752pt" version="1.1" viewBox="0 0 752 752" xmlns="http://www.w3.org/2000/svg">
 <defs>
  <clipPath id="a">
   <path d="m194 139.21h364v473.58h-364z"/>
  </clipPath>
 </defs>
 <g clip-path="url(#a)">
  <path d="m524.74 197.73c-1.7695-0.24219-3.5391-0.37109-5.2969-0.37109-5.9141 0-11.578 1.4023-16.648 3.9062l1.5039-10.492c0.24219-1.8164 0.36719-3.5703 0.36719-5.3281 0-18.547-13.621-34.66-32.465-37.312-1.7891-0.25391-3.5703-0.37891-5.3086-0.37891-18.547 0-34.656 13.625-37.32 32.48l-24.18 162.45-49.727-175.6c-4.5156-16.742-19.73-27.867-36.41-27.867-3.2422 0-6.543 0.42578-9.8125 1.3125-16.836 4.5273-27.949 19.738-27.949 36.426 0 1.1367 0.11719 2.2969 0.22656 3.4531-4.6758-2.0391-9.7383-3.2578-14.992-3.2578-3.2383 0-6.5391 0.41406-9.8242 1.3047-16.824 4.5312-27.949 19.734-27.949 36.418 0 3.2305 0.41406 6.5234 1.3047 9.8086l22.637 92.855c-4.4336 0.78125-9.1133 2.2344-14.148 4.5273-2.582 1.1875-4.3203 3.6641-4.5469 6.5 0 0-0.023437 0.26562-0.15234 1.207-0.91797 6.5508-6.668 38.148-37.617 77.785-1.207 1.543-1.7891 3.4922-1.625 5.4531 0.042968 0.33594 4.0195 48.875 20.066 98.082 8.0547 24.625 19.074 49.461 34.719 68.723 15.488 19.168 36.441 32.98 62.684 32.98h0.15234c0.50781-0.011718 0.77734-0.011718 0.83984-0.011718h134.5c47.832 0 86.609-38.77 86.609-86.609l0.007812-108.95 22.496-176.96c0.23047-1.6992 0.34375-3.4648 0.33984-5.1953-0.007812-18.559-13.641-34.668-32.477-37.332zm16.625 40.465-18.68 146.99-3.9336 30.996v5.1641l-0.011718 104.84c-0.074219 39.203-31.777 70.918-70.969 70.977l-134.27 0.011719c-0.42969-0.023438-0.875 0-1.0664 0-20.629-0.066407-36.828-10.305-50.707-27.215-20.695-25.289-33.949-65.098-41.512-98.387-3.8125-16.648-6.2695-31.664-7.7734-42.5-0.91406-6.5234-1.4727-11.469-1.7656-14.383 28.516-37.398 36.375-68.387 38.43-80 2.875-1.0625 5.3477-1.6562 7.5039-1.957 1.1562-0.16797 2.25-0.27344 3.2109-0.26953 1.8281 0 3.3281 0.25781 4.6172 0.66797 2.832 0.92969 4.9258 2.6055 6.8945 5.3242 5.4688 7.2812 6.8945 22.41 6.7305 29.105 0 0.79687-0.003906 1.4609-0.023437 1.9922-1.3047 2.7031-2.4922 5.2812-3.6289 7.7773-1.6172 3.5703-3.043 6.9375-4.3633 10.184-7.9688 19.613-10.734 33.457-10.762 43.664-0.38672 17.375 9.5 24.391 11.891 24.91l0.70312 0.25391 17.527 5.1914c0.18359 0.058594 0.37891 0.054687 0.5625 0.089844 0.14453 0.03125 0.29688 0.046874 0.44141 0.070312 0.37109 0.097656 0.76172 0.10156 1.1484 0.14062 0.42969 0.046875 0.83984 0.18359 1.2852 0.15234 2.3398 0.046875 13.988 0.46484 26.723 4.4883 13.957 4.4141 28.516 12.73 35.738 28.457 1.3203 2.8477 4.1445 4.5312 7.0977 4.5312 1.0938 0 2.2109-0.22656 3.2695-0.71875 3.9219-1.8086 5.625-6.4453 3.8242-10.367-9.8828-21.324-29.094-31.746-45.238-36.812-10.637-3.332-20.176-4.5156-26.023-4.9414l-4.8164-26.844-2.0781-11.566-3.6953-20.582c-0.066407-0.35156-0.15234-0.70703-0.25781-1.043 0.40625-0.92188 0.82031-1.8516 1.25-2.8008 1.3047-2.8633 2.6602-5.7773 4.1641-8.8477 0.45312-0.93359 0.71094-1.8984 0.77734-2.9297 0.011719-0.14062 0.11328-1.7969 0.11328-4.4609-0.15234-8.0312-0.55078-24.957-9.6289-38.16-3.3945-4.8125-8.3711-9.0938-14.879-11.152-0.011719-0.003907-0.023438-0.003907-0.039062-0.011719l-23.734-97.43c-0.58203-2.1133-0.81641-4.0234-0.81641-5.9141 0-9.7266 6.5117-18.691 16.387-21.32 1.9258-0.52734 3.8398-0.76953 5.7461-0.76953 9.7266 0 18.68 6.5117 21.324 16.383l34.211 121.01 14.348 52.148c0.96094 3.4688 4.1055 5.7383 7.5352 5.7383 0.68359 0 1.375-0.089844 2.0664-0.28125 4.1602-1.1445 6.6133-5.4609 5.4688-9.6094l-2.2188-8.0742c0-0.70703-0.054688-1.418-0.25391-2.1289h-0.011719l-11.812-41.793-39.512-143.55c-0.50781-1.8867-0.75-3.7969-0.75-5.6797 0-9.7383 6.5156-18.703 16.383-21.328 1.9297-0.52344 3.8359-0.77734 5.7461-0.77734 9.7305 0.011718 18.707 6.5156 21.336 16.387l57.758 203.91c1.1172 3.918 5.0273 6.2461 8.9453 5.5117 0.11328 0.027344 0.22266 0.074218 0.33984 0.085937 0.38672 0.058594 0.78125 0.089844 1.1602 0.089844 3.8125 0 7.1523-2.7891 7.7461-6.6641l-0.011718-0.011718 28.527-191.68c1.5469-11.125 11.031-19.098 21.844-19.098 1.0312 0 2.0664 0.066406 3.1055 0.22266 11.055 1.5391 19.027 11.02 19.027 21.844 0 0.99609-0.066406 2.0625-0.22266 3.1758l-4.8867 33.91c-0.82031 2.3359-1.4453 4.7812-1.7891 7.3242l-14.637 106.6-2.9297 20.293c-0.074218 0.5-0.085937 1.0039-0.066406 1.4883l-2.1562 15.734c-0.58984 4.2852 2.4023 8.2227 6.6797 8.8086 4.2656 0.58203 8.2148-2.4062 8.8086-6.6797l5.0156-36.562 16.27-112.86c3.3594-8.1602 11.352-13.703 20.328-13.703 1.0156 0 2.043 0.074219 3.0977 0.22656 11.055 1.5312 19.047 11.027 19.047 21.852 0 1.0469-0.074219 2.0898-0.22266 3.1367zm-264.45 178.16 4.7734 26.578-4.1914-1.2344c-0.64844-0.65234-2.4609-2.9336-2.5664-10.531-0.015625-3.6758 0.51172-8.5469 1.9844-14.812z"/>
 </g>
</svg>
